<svg xmlns="http://www.w3.org/2000/svg" xmlns:xlink="http://www.w3.org/1999/xlink" viewBox="0 0 181.85 181.85"><defs><style>.cls-1{fill:none;}.cls-2{fill:#f50000;}.cls-3{clip-path:url(#clip-path);}.cls-4{fill:#fff;}</style><clipPath id="clip-path"><rect class="cls-1" x="40.93" y="73.74" width="100" height="34.37"/></clipPath></defs><g id="Layer_2" data-name="Layer 2"><g id="Layer_1-2" data-name="Layer 1"><rect class="cls-2" width="181.85" height="181.85" rx="47.7"/><g id="Layer_2-2" data-name="Layer 2"><g id="Layer_1-2-2" data-name="Layer 1-2"><g id="Artwork_3" data-name="Artwork 3"><g class="cls-3"><g class="cls-3"><path class="cls-4" d="M58.06,89.13l7.85,11A5.46,5.46,0,0,1,67,103.41a4.46,4.46,0,0,1-1.26,3.21,4.23,4.23,0,0,1-3.19,1.3,5.07,5.07,0,0,1-4.26-2.46l-6.89-9.72-.93.9v6a5.44,5.44,0,0,1-1.35,3.84,4.56,4.56,0,0,1-3.46,1.45,4.43,4.43,0,0,1-3.42-1.45,5.42,5.42,0,0,1-1.34-3.81V79.08a5.48,5.48,0,0,1,1.35-3.86,4.42,4.42,0,0,1,3.41-1.48,4.49,4.49,0,0,1,3.43,1.48,5.47,5.47,0,0,1,1.38,3.86v4.6l8.17-8.18a5.55,5.55,0,0,1,2.06-1.45,8.41,8.41,0,0,1,2.5-.31A3.59,3.59,0,0,1,65.73,75,4.33,4.33,0,0,1,67,78.15,5.22,5.22,0,0,1,65.28,82Zm-16-10.5a1.11,1.11,0,0,0,.59-.11,2.8,2.8,0,0,0,.47-.78,3.78,3.78,0,0,1,.81-1.21q.48-.44.48-.69c0-.41-.27-.62-.82-.62-.37,0-.79.34-1.26,1a3.26,3.26,0,0,0-.7,1.68c0,.48.14.73.43.73m18.56-2.44a.67.67,0,0,0,.2-.45.65.65,0,0,0-.55-.72h-.18a.63.63,0,0,0-.45.2l-1.57,1.65a.66.66,0,0,0-.28.45.68.68,0,0,0,.22.5.7.7,0,0,0,.51.23.71.71,0,0,0,.41-.25Z"/><path class="cls-4" d="M85.53,103l-1.09,2.15a4.79,4.79,0,0,1-4.41,3,4.57,4.57,0,0,1-3.46-1.53,4.82,4.82,0,0,1-1.43-3.38,3.6,3.6,0,0,1,.31-1.65L86.82,77.13a6,6,0,0,1,2-2.48,4.71,4.71,0,0,1,5.56,0,6.18,6.18,0,0,1,2,2.47l11.36,24.42a4.3,4.3,0,0,1,.32,1.66,4.88,4.88,0,0,1-1.4,3.39,4.54,4.54,0,0,1-3.44,1.52,4.81,4.81,0,0,1-4.41-3L97.67,103Zm-7.1-2.56a2.35,2.35,0,0,0,0-.53c0-.26-.31-.4-.93-.4-.12,0-.23.14-.35.4L76.22,102a1.84,1.84,0,0,0,0,.57c0,.27.31.4.93.4.12,0,.23-.13.35-.4ZM88.1,78.67c.25,0,.47-.19.67-.6a6.56,6.56,0,0,1,.87-1.28,2.17,2.17,0,0,0,.56-.9c0-.41-.24-.62-.73-.62-.3,0-.72.4-1.27,1.19A4.38,4.38,0,0,0,87.37,78a.63.63,0,0,0,.54.72.61.61,0,0,0,.19,0m5.76,15.07-2.24-4.89-2.24,4.89Z"/><path class="cls-4" d="M124.53,92.9l7.13-16.24a5,5,0,0,1,1.67-2,3.76,3.76,0,0,1,2.23-.84,5.5,5.5,0,0,1,3.93,1.36,4.53,4.53,0,0,1,1.44,3.39,3.94,3.94,0,0,1-.33,1.66l-11.35,24.51a5.89,5.89,0,0,1-2,2.47,5,5,0,0,1-2.8.87,4.72,4.72,0,0,1-2.69-.9,5.78,5.78,0,0,1-2-2.43l-11.4-24.52a4.28,4.28,0,0,1-.3-1.66,4.82,4.82,0,0,1,1.31-3.28,4.17,4.17,0,0,1,3.25-1.47,4.72,4.72,0,0,1,4.74,2.82ZM109.09,78.74a1.16,1.16,0,0,0,.63-.11,4.88,4.88,0,0,0,.46-.8,4.22,4.22,0,0,1,.8-1.16c.31-.3.46-.54.46-.71,0-.42-.27-.63-.82-.63-.34,0-.74.35-1.22,1a3.31,3.31,0,0,0-.71,1.69c0,.45.13.68.4.68m24.84-1.9a2.81,2.81,0,0,0,0-.58c0-.27-.31-.4-.93-.4-.12,0-.23.12-.35.35l-1,2a1.88,1.88,0,0,0,0,.58c0,.27.31.4.93.4.11,0,.23-.12.35-.35Z"/></g></g></g></g></g></g></g></svg>